:SAMPLES-PER-SECOND 30
:FULLY-SPECIFIED
:DEGREES
392
root  70.1919 38.4154 5.84145 51.9884 82.8179 58.9896
RightUpLeg  -6.75361 1.94001 -12.7723
RightLeg  58.1527 2.15968 3.30019
RightFoot  -1.82194 -0.770585 9.08365
RightToes  -4.65663e-010 0 -3.6325e-017
Spine  9.8394 0.436878 -12.7687
Spine1  4.3049 -1.69213 3.20553
HEad  -28.5516 3.19357 -0.0407556
LeftShoulder1  -0.712986 5.23346 -35.0286
LeftArm  11.8503 -7.91382 -39.891
LeftForeArm  16.3474 -18.4843 -6.18049
LeftHand  -0.030683 8.77326 0.662258
RightShoulder  -0.951194 -6.1495 29.3859
RightArm  23.6018 -13.8291 45.3486
RightForeArm  16.713 14.6311 6.69095
RightHand  0.0767523 2.26537 0.97533
LeftUpLeg  -5.93477 6.48967 -5.10215
LeftLeg  14.4028 1.71688 -1.66806
LeftFoot  -1.61173 -0.184196 2.28203
LeftToes  8.74931e-010 -1.05764e-010 1.2659e-011
393
root  70.7744 38.5076 5.80287 53.4689 83.3968 60.5472
RightUpLeg  -9.9147 0.550047 -12.0862
RightLeg  56.6635 1.50807 2.05252
RightFoot  -2.20436 -0.774563 9.49173
RightToes  -4.65663e-010 0 -3.6325e-017
Spine  10.0651 0.1124 -13.706
Spine1  4.6094 -2.37434 4.60441
HEad  -29.0359 3.32906 0.0412295
LeftShoulder1  -0.675326 5.15475 -34.7275
LeftArm  14.839 -11.0747 -39.7101
LeftForeArm  11.1131 -21.0845 -5.05667
LeftHand  0.00929783 7.56215 2.42551
RightShoulder  -0.933118 -6.11276 29.194
RightArm  23.7843 -14.3436 45.974
RightForeArm  16.1017 15.7408 6.16864
RightHand  0.0992649 0.7496 1.81505
LeftUpLeg  -4.61428 7.21531 -4.50326
LeftLeg  14.0248 0.4662 -2.33764
LeftFoot  -2.44604 -0.176089 2.44769
LeftToes  8.74931e-010 -1.05764e-010 1.2659e-011
394
root  71.369 38.5784 5.71387 51.7297 83.7726 58.7556
RightUpLeg  -12.5383 -0.0533497 -11.2656
RightLeg  52.6052 1.01623 1.05811
RightFoot  -2.62041 -0.796457 10.1757
RightToes  -4.65663e-010 0 -3.6325e-017
Spine  10.1958 -0.135248 -13.9345
Spine1  4.62262 -2.77843 5.35006
HEad  -29.2323 3.68147 -0.0125677
LeftShoulder1  -0.696948 5.21646 -34.5145
LeftArm  11.0123 -12.3597 -40.1713
LeftForeArm  13.2356 -24.1346 -4.41101
LeftHand  0.00999017 7.06608 3.09192
RightShoulder  -0.923838 -6.09294 29.1062
RightArm  23.7564 -14.5258 46.3324
RightForeArm  15.367 16.6422 5.77853
RightHand  0.0879731 2.3423 1.12367
LeftUpLeg  -3.57176 7.32043 -4.08382
LeftLeg  13.9259 0.193712 -2.47338
LeftFoot  -3.31827 -0.161105 2.5983
LeftToes  8.74931e-010 -1.05764e-010 1.2659e-011
395
root  71.929 38.6197 5.64577 49.5503 84.4086 56.3378
RightUpLeg  -14.4433 -0.578504 -10.1812
RightLeg  46.3515 0.992555 0.792216
RightFoot  -2.82651 -0.773215 10.1182
RightToes  -4.65663e-010 0 -3.6325e-017
Spine  10.4825 -0.306979 -13.7971
Spine1  4.08012 -3.07298 6.26421
HEad  -29.0199 4.09279 -0.423816
LeftShoulder1  -0.677291 5.17709 -34.303
LeftArm  6.49432 -12.761 -40.3336
LeftForeArm  16.7526 -27.9463 -5.1218
LeftHand  0.015042 6.7642 3.8818
RightShoulder  -0.96228 -6.19254 29.2277
RightArm  23.157 -13.984 46.513
RightForeArm  15.8749 16.8122 5.6059
RightHand  0.0949145 2.47907 1.19673
LeftUpLeg  -3.21184 8.02571 -3.49333
LeftLeg  14.6742 -0.714814 -2.49267
LeftFoot  -4.28894 -0.172363 3.18278
LeftToes  8.74931e-010 -1.05764e-010 1.2659e-011
396
root  72.5921 38.6321 5.41328 40.404 83.8875 46.8333
RightUpLeg  -15.9618 -0.0199182 -10.0168
RightLeg  38.8453 2.02374 1.44822
RightFoot  -3.82702 -0.841372 12.3968
RightToes  -4.65663e-010 0 -3.6325e-017
Spine  9.5595 -0.375658 -11.3933
Spine1  4.79862 -2.33905 3.83015
HEad  -29.2059 3.85945 -0.61251
LeftShoulder1  -0.666314 5.15435 -34.1989
LeftArm  5.10878 -13.9507 -40.4438
LeftForeArm  18.016 -30.6813 -5.69468
LeftHand  -0.00317619 6.21958 3.73743
RightShoulder  -0.956966 -6.1797 29.1992
RightArm  23.1073 -12.9063 46.9672
RightForeArm  15.6923 16.4655 5.79432
RightHand  0.0818006 3.2418 0.894362
LeftUpLeg  -2.4914 7.25514 -3.75609
LeftLeg  14.7103 1.08899 -1.87766
LeftFoot  -5.8117 -0.0876055 2.56825
LeftToes  8.74931e-010 -1.05764e-010 1.2659e-011
